# xmcd
#
# Track frame offsets:
#	150
#	15038
#	27768
#	41124
#	54862
#	68450
#	80094
#	93229
#	105015
#	135025
#	148885
#	162225
#	175682
#	189053
#	200378
#	213322
#	227879
#
# Disc length: 3197
#
# Revision: 1
# Processed by: cddbd v1.5.1PL0 Copyright (c) Steve Scherf et al.
# Submitted via: CDex 1.50beta10
# Normalized: r0:DSETVAR1
#
DISCID=c30c7b11
DTITLE=Various Artist - Under The Influence: Volume 2 - The Early Blues Roots Of Fleetwood Mac
DYEAR=2000
DGENRE=Blues
TTITLE0=Robert Nighthawk - Every Day And Night
TTITLE1=Leroy Foster and Muddy Waters - Rollin' And Tumblin' Pt.1
TTITLE2=Robert Johnson - Dust My Broom
TTITLE3=Son House - Preachin' Blues
TTITLE4=Robert Johnson - Sweet Home Chicago
TTITLE5=Memphis Minnie - Please Set A Date
TTITLE6=Leroy Carr - Mean Mistreatin' Mama
TTITLE7=Robert Johnson - Hell Hound On My Trail
TTITLE8=Son House - Walkin' Blues
TTITLE9=Sonny Boy Williamson - Baby I've Been Your Slave
TTITLE10=Leroy Carr - When The Sun Goes Down
TTITLE11=T-Bone Walker - T-Bone Shuffle
TTITLE12=Sonny Boy Williamson - Sugar Mama
TTITLE13=Lowell Fulson - Everyday I Have The Blues
TTITLE14=Joe McCoy - Strangers Blues
TTITLE15=Blind Willie Mctell - Travelin' Blues
TTITLE16=Lightnin' Hopkins - Death Bells
EXTD=YEAR: 2000
EXTT0=
EXTT1=
EXTT2=
EXTT3=
EXTT4=
EXTT5=
EXTT6=
EXTT7=
EXTT8=
EXTT9=
EXTT10=
EXTT11=
EXTT12=
EXTT13=
EXTT14=
EXTT15=
EXTT16=
PLAYORDER=
